<?xml version="1.0" encoding="UTF-8" standalone="no"?>
<!-- Created with Inkscape (http://www.inkscape.org/) -->

<svg
   xmlns:dc="http://purl.org/dc/elements/1.1/"
   xmlns:cc="http://creativecommons.org/ns#"
   xmlns:rdf="http://www.w3.org/1999/02/22-rdf-syntax-ns#"
   xmlns:svg="http://www.w3.org/2000/svg"
   xmlns="http://www.w3.org/2000/svg"
   xmlns:sodipodi="http://sodipodi.sourceforge.net/DTD/sodipodi-0.dtd"
   xmlns:inkscape="http://www.inkscape.org/namespaces/inkscape"
   width="210mm"
   height="297mm"
   viewBox="0 0 210 297"
   version="1.1"
   id="svg8"
   inkscape:version="0.92.5 (2060ec1f9f, 2020-04-08)"
   sodipodi:docname="doc-txt.svg">
  <defs
     id="defs2" />
  <sodipodi:namedview
     id="base"
     pagecolor="#ffffff"
     bordercolor="#666666"
     borderopacity="1.0"
     inkscape:pageopacity="0.0"
     inkscape:pageshadow="2"
     inkscape:zoom="0.49497475"
     inkscape:cx="-415.01005"
     inkscape:cy="1036.4134"
     inkscape:document-units="mm"
     inkscape:current-layer="layer1-92"
     showgrid="false"
     inkscape:window-width="2560"
     inkscape:window-height="1349"
     inkscape:window-x="2560"
     inkscape:window-y="0"
     inkscape:window-maximized="1" />
  <metadata
     id="metadata5">
    <rdf:RDF>
      <cc:Work
         rdf:about="">
        <dc:format>image/svg+xml</dc:format>
        <dc:type
           rdf:resource="http://purl.org/dc/dcmitype/StillImage" />
        <dc:title></dc:title>
      </cc:Work>
    </rdf:RDF>
  </metadata>
  <g
     inkscape:label="Calque 1"
     inkscape:groupmode="layer"
     id="layer1">
    <g
       transform="matrix(1.6407014,0,0,2.2728406,-2842.553,-1312.074)"
       id="x-office-spreadsheet_128"
       inkscape:label="#g15142">
      <g
         transform="translate(1548,640)"
         inkscape:label="#g4140"
         id="dckdnc">
        <rect
           style="opacity:0.75;fill:none;fill-opacity:0.47448982;stroke:none;stroke-width:1;stroke-linecap:butt;stroke-linejoin:miter;stroke-miterlimit:4;stroke-dasharray:none;stroke-dashoffset:0;stroke-opacity:1"
           id="rect4138-3"
           width="128"
           height="128"
           x="0"
           y="-64"
           rx="0"
           ry="0" />
        <g
           transform="matrix(1.9787183,0,0,1.9830421,0.68090372,-2023.4557)"
           id="layer1-5-1"
           inkscape:label="Layer 1">
          <g
             transform="matrix(1.3428376,0,0,1.340755,-0.22814694,988.19153)"
             id="layer1-1-6"
             inkscape:label="Layer 1" />
        </g>
      </g>
      <g
         id="g904"
         transform="matrix(1.3617391,0,0,1.1074919,-398.60214,-61.744983)">
        <g
           inkscape:label="Layer 1"
           id="layer1-92"
           transform="translate(1547.9993,640.00113)">
          <path
             inkscape:connector-curvature="0"
             id="use4402-8"
             d="M 24.80332,-53.489971 V -52.268 h 13.834058 v -1.221971 z m 16.139726,0 V -52.268 h 12.681218 v -1.221971 z m 14.986897,0 V -52.268 h 4.61135 v -1.221971 z m -31.126623,4.887849 v 1.221959 h 4.611349 v -1.221959 z m 0,4.887849 v 1.221959 h 9.222699 v -1.221959 z m 11.528378,0 v 1.221959 h 13.834057 v -1.221959 z m 16.139727,0 v 1.221959 h 4.611359 v -1.221959 z m 8.069868,0 v 1.221959 h 3.45851 v -1.221959 z m 13.834056,0 v 1.221959 h 9.222699 v -1.221959 z m -49.572029,4.887837 v 1.221959 h 8.069868 v -1.221959 z m 10.375538,0 v 1.221959 h 4.611349 v -1.221959 z m 6.532006,0 v 1.221959 h 6.149211 v -1.221959 z m 8.454891,0 v 1.221959 h 8.069858 v -1.221959 z m 10.375538,0 v 1.221959 h 14.986896 v -1.221959 z m -35.737973,4.887849 v 1.221959 h 13.834058 v -1.221959 z m 16.139726,0 v 1.221959 h 12.681218 v -1.221959 z m 14.986897,0 v 1.221959 h 4.61135 v -1.221959 z m 6.917029,0 v 1.221959 H 73.22251 v -1.221959 z m 12.681217,0 v 1.221959 h 9.222698 v -1.221959 z m 11.528378,0 v 1.221959 h 2.305664 v -1.221959 z m 4.611343,0 v 1.221959 h 1.152851 v -1.221959 z m 3.458521,0 v 1.221959 h 5.764179 v -1.221959 z M 24.80332,-29.05075 v 1.221972 h 10.375538 v -1.221972 z m 12.681217,0 v 1.221972 h 5.764189 v -1.221972 z m 8.069868,0 v 1.221972 h 2.30567 v -1.221972 z m 3.45851,0 v 1.221972 h 3.45851 v -1.221972 z m 5.764189,0 v 1.221972 h 3.458509 v -1.221972 z m 5.764189,0 v 1.221972 h 6.917028 v -1.221972 z m 9.222708,0 v 1.221972 h 9.222698 v -1.221972 z m 11.528377,0 v 1.221972 h 6.917019 v -1.221972 z m 9.222692,0 v 1.221972 h 1.15284 v -1.221972 z m -65.71175,4.887849 v 1.22196 h 8.069868 v -1.22196 z m 10.375538,0 v 1.22196 h 4.611349 v -1.22196 z m 6.917029,0 v 1.22196 h 4.611349 v -1.22196 z m 6.917028,0 v 1.22196 h 2.30568 v -1.22196 z m 4.611349,0 v 1.22196 h 3.45852 v -1.22196 z m 5.764189,0 v 1.22196 h 14.986896 v -1.22196 z m -34.585133,4.887849 v 1.22196 h 10.375538 v -1.22196 z m 12.681217,0 v 1.22196 h 5.764189 v -1.22196 z m 8.069868,0 v 1.22196 h 2.30567 v -1.22196 z m 3.45851,0 v 1.22196 h 3.45851 v -1.22196 z m 5.764189,0 v 1.22196 h 3.458509 v -1.22196 z m 5.764189,0 v 1.22196 h 9.222708 v -1.22196 z m 11.528378,0 v 1.22196 h 10.375538 v -1.22196 z m -47.266351,4.887839 v 1.22197 h 11.528378 v -1.22197 z m 13.834058,0 v 1.22197 h 13.834047 v -1.22197 z M 24.80332,-9.4993647 v 1.221959 h 5.76419 v -1.221959 z m 8.069868,0 v 1.221959 h 6.917019 v -1.221959 z m 9.222699,0 v 1.221959 h 4.611349 v -1.221959 z M 24.80332,-4.6115156 v 1.2219594 h 9.222699 v -1.2219594 z m 11.528378,0 v 1.2219594 H 52.471425 V -4.6115156 Z M 24.80332,0.27632177 V 1.4982812 h 9.222699 V 0.27632177 Z m 11.528378,0 V 1.4982812 H 51.318595 V 0.27632177 Z m 17.292566,0 V 1.4982812 h 4.611349 V 0.27632177 Z m 6.917029,0 V 1.4982812 h 4.611349 V 0.27632177 Z m 6.917028,0 V 1.4982812 h 6.917028 V 0.27632177 Z m 9.222698,0 V 1.4982812 h 1.15284 V 0.27632177 Z M 24.80332,5.1641709 v 1.2219593 h 8.069868 V 5.1641709 Z m 10.375538,0 v 1.2219593 h 5.764188 V 5.1641709 Z M 24.80332,10.052019 v 1.221961 h 3.45851 v -1.221961 z m 0,4.887838 v 1.221959 h 8.069868 v -1.221959 z m 10.375538,0 v 1.221959 h 4.611349 v -1.221959 z m 17.292567,0 v 1.221959 h 6.917028 v -1.221959 z m 9.222708,0 v 1.221959 h 5.764188 v -1.221959 z m 8.069868,0 v 1.221959 h 4.611348 V 14.939857 Z M 24.80332,19.827706 v 1.22196 h 9.222699 v -1.22196 z m 11.528378,0 v 1.22196 h 6.917028 v -1.22196 z m 16.139727,0 v 1.22196 h 5.809222 v -1.22196 z m 8.069868,0 v 1.22196 h 13.834056 v -1.22196 z m 16.139726,0 v 1.22196 h 11.528378 v -1.22196 z M 24.80332,24.715543 v 1.221972 h 8.069868 v -1.221972 z m 10.375538,0 v 1.221972 h 4.611349 v -1.221972 z m 17.292567,0 v 1.221972 h 6.917028 v -1.221972 z m 9.222708,0 v 1.221972 h 12.681216 v -1.221972 z m 14.986886,0 v 1.221972 h 8.069868 V 24.715543 Z M 24.80332,29.603392 v 1.22196 h 5.76419 v -1.22196 z m 8.069868,0 v 1.22196 h 5.76419 v -1.22196 z m 19.598237,0 v 1.22196 h 5.764188 v -1.22196 z m 8.069868,0 v 1.22196 h 4.611349 v -1.22196 z m 6.917028,0 v 1.22196 h 6.917028 v -1.22196 z m 9.274487,0 v 1.22196 h 2.253891 v -1.22196 z m 4.55957,0 v 1.22196 h 9.222692 v -1.22196 z m -56.489058,4.88785 v 1.221959 h 13.834058 v -1.221959 z m 16.139726,0 v 1.221959 h 12.681218 v -1.221959 z m 14.986897,0 v 1.221959 h 4.61135 v -1.221959 z m 6.917029,0 v 1.221959 H 73.22251 v -1.221959 z m 12.681217,0 v 1.221959 h 9.222698 v -1.221959 z m 11.528378,0 v 1.221959 h 2.305664 v -1.221959 z m 4.611343,0 v 1.221959 h 1.152851 v -1.221959 z m 3.458521,0 v 1.221959 h 5.764179 V 34.491242 Z M 24.80332,39.379079 v 1.221959 h 10.375538 v -1.221959 z m 12.681217,0 v 1.221959 h 5.764189 v -1.221959 z m 8.069868,0 v 1.221959 h 2.30567 v -1.221959 z m 3.45851,0 v 1.221959 h 3.45851 v -1.221959 z m 5.764189,0 v 1.221959 h 3.458509 v -1.221959 z m 5.764189,0 v 1.221959 h 6.917028 v -1.221959 z m 9.222708,0 v 1.221959 h 9.222698 v -1.221959 z m 11.528377,0 v 1.221959 h 6.917019 v -1.221959 z m 9.222692,0 v 1.221959 h 1.15284 v -1.221959 z m -65.71175,4.887849 v 1.221959 h 9.222699 v -1.221959 z m 11.528378,0 v 1.221959 h 10.375538 v -1.221959 z m 16.139727,0 v 1.221959 h 8.069868 v -1.221959 z m 10.375547,0 v 1.221959 h 4.611349 v -1.221959 z m 6.531995,0 v 1.221959 h 6.149222 v -1.221959 z m 8.454892,0 v 1.221959 h 8.069868 v -1.221959 z m 10.375538,0 v 1.221959 h 14.986893 v -1.221959 z"
             style="display:inline;fill:#b4bfd8;fill-opacity:1;stroke:none;stroke-width:1.18689644" />
        </g>
      </g>
    </g>
  </g>
</svg>
