<?xml version="1.0" encoding="UTF-8" standalone="no"?>
<!-- Created with Inkscape (http://www.inkscape.org/) -->

<svg
   xmlns:dc="http://purl.org/dc/elements/1.1/"
   xmlns:cc="http://creativecommons.org/ns#"
   xmlns:rdf="http://www.w3.org/1999/02/22-rdf-syntax-ns#"
   xmlns:svg="http://www.w3.org/2000/svg"
   xmlns="http://www.w3.org/2000/svg"
   xmlns:sodipodi="http://sodipodi.sourceforge.net/DTD/sodipodi-0.dtd"
   xmlns:inkscape="http://www.inkscape.org/namespaces/inkscape"
   width="210mm"
   height="297mm"
   viewBox="0 0 210 297"
   version="1.1"
   id="svg8"
   inkscape:version="0.92.5 (2060ec1f9f, 2020-04-08)"
   sodipodi:docname="library-doc-pdf.svg">
  <defs
     id="defs2" />
  <sodipodi:namedview
     id="base"
     pagecolor="#ffffff"
     bordercolor="#666666"
     borderopacity="1.0"
     inkscape:pageopacity="0.0"
     inkscape:pageshadow="2"
     inkscape:zoom="0.7"
     inkscape:cx="-401.31442"
     inkscape:cy="548.22358"
     inkscape:document-units="mm"
     inkscape:current-layer="layer1"
     showgrid="false"
     inkscape:window-width="2560"
     inkscape:window-height="1349"
     inkscape:window-x="0"
     inkscape:window-y="0"
     inkscape:window-maximized="1" />
  <metadata
     id="metadata5">
    <rdf:RDF>
      <cc:Work
         rdf:about="">
        <dc:format>image/svg+xml</dc:format>
        <dc:type
           rdf:resource="http://purl.org/dc/dcmitype/StillImage" />
        <dc:title />
      </cc:Work>
    </rdf:RDF>
  </metadata>
  <g
     inkscape:label="Calque 1"
     inkscape:groupmode="layer"
     id="layer1">
    <rect
       style="fill:#012335;fill-opacity:1;stroke:none;stroke-width:0.58737499;stroke-miterlimit:4;stroke-dasharray:none;stroke-opacity:1"
       id="rect834"
       width="210"
       height="297"
       x="5.5511151e-16"
       y="5.6843419e-14"
       ry="0" />
    <path
       sodipodi:nodetypes="scccscccscccccssscacccsccccccccccccccccccccaccccccccc"
       inkscape:connector-curvature="0"
       d="m 28.201677,222.91007 c -8.808868,-8.8089 0.72167,-20.91353 26.586311,-33.7673 l 16.274422,-8.08766 6.34016,-13.87216 c 3.48711,-7.6297 8.69155,-20.07884 11.56548,-27.66465 l 5.22537,-13.79256 -3.60086,-10.20719 C 86.165,102.96781 84.58614,84.107184 87.3953,77.325262 c 3.80506,-9.186203 16.26867,-8.243712 21.20299,1.603441 3.85369,7.690546 3.4597,21.617907 -1.1084,39.182417 l -3.745,14.39989 3.29873,5.59991 c 1.81433,3.07996 7.1139,10.39309 11.77689,16.25139 l 8.7638,10.90137 10.90534,-1.42308 C 173.13397,159.31984 185,167.00328 185,178.0198 c 0,13.9037 -27.20319,15.05136 -50.04699,-0.99314 -5.13989,-3.61004 -8.66961,-7.19622 -8.66961,-7.19622 0,0 -14.31085,2.91342 -21.35685,4.81251 -7.27298,1.96033 -10.90149,3.18805 -21.55523,6.78412 0,0 -3.738,5.42834 -6.17381,9.37471 -9.06218,14.68193 -19.643239,26.84934 -27.199796,31.27782 -8.460612,4.95823 -17.330254,5.29623 -21.796037,0.83047 z m 13.824157,-4.93862 c 4.951614,-3.06032 14.973789,-14.91386 21.911416,-25.91538 l 2.80886,-4.45423 -12.789611,6.43052 c -19.753419,9.9318 -28.790204,19.2925 -24.091122,24.95452 2.639777,3.18069 5.797675,2.91697 12.160457,-1.01543 z M 170.33547,181.95577 c 4.84312,-3.39228 4.14007,-10.2283 -1.33533,-12.98451 -4.26122,-2.14501 -7.69571,-2.58569 -18.76537,-2.42233 -6.80247,0.46384 -17.74101,1.83472 -19.59489,2.25178 0,0 6.00918,4.15309 8.67709,5.67965 3.55155,2.02849 12.18214,5.79387 18.4833,7.72262 6.21559,1.90251 9.81095,1.70191 12.5352,-0.24729 z m -51.59165,-21.44296 c -2.93106,-3.08114 -7.9151,-9.51195 -11.07553,-14.29069 -4.13342,-5.42085 -6.20616,-9.24535 -6.20616,-9.24535 0,0 -3.02118,9.71745 -5.49978,15.56506 l -7.7329,19.11373 -2.242,4.3355 c 0,0 11.91926,-3.9081 17.98365,-5.49219 6.42312,-1.6777 19.45905,-4.24111 19.45905,-4.24111 z m -16.626,-66.674569 c 0.74761,-6.273969 1.06491,-12.538601 -0.95086,-15.697679 -5.59121,-6.112293 -12.33969,-1.015133 -11.19659,13.516465 0.38459,4.888532 1.59906,13.245303 3.22266,18.396043 l 2.95204,9.36486 2.07771,-7.0533 c 1.14273,-3.87933 2.89551,-12.21622 3.89504,-18.526389 z"
       style="fill:#ff2116;fill-opacity:1;stroke-width:1.59998345"
       id="path2697" />
    <rect
       style="fill:#02162d;fill-opacity:0.78431374;stroke:none;stroke-width:0.57407922;stroke-miterlimit:4;stroke-dasharray:none;stroke-opacity:1"
       id="rect888"
       width="209.80441"
       height="50.260483"
       x="0.24899364"
       y="123.36976"
       ry="0.3112497" />
    <rect
       style="fill:#02162d;fill-opacity:1;stroke:none;stroke-width:0.77932078;stroke-miterlimit:4;stroke-dasharray:none;stroke-opacity:1"
       id="rect890"
       width="13.604184"
       height="296.22067"
       x="0.38966039"
       y="0.3896637"
       ry="0" />
    <text
       xml:space="preserve"
       style="font-style:normal;font-variant:normal;font-weight:normal;font-stretch:normal;font-size:10.58333302px;line-height:125%;font-family:Ubuntu;-inkscape-font-specification:Ubuntu;letter-spacing:0px;word-spacing:0px;fill:#000000;fill-opacity:1;stroke:none;stroke-width:0.26458332px;stroke-linecap:butt;stroke-linejoin:miter;stroke-opacity:1"
       x="104.11804"
       y="160.70612"
       id="text896"><tspan
         sodipodi:role="line"
         id="tspan894"
         x="104.11804"
         y="160.70612"
         style="font-style:normal;font-variant:normal;font-weight:bold;font-stretch:normal;font-size:35.27777863px;font-family:Ubuntu;-inkscape-font-specification:'Ubuntu, Bold';font-variant-ligatures:normal;font-variant-caps:normal;font-variant-numeric:normal;font-feature-settings:normal;text-align:center;writing-mode:lr-tb;text-anchor:middle;fill:#ffffff;fill-opacity:1;stroke-width:0.26458332px">PDF</tspan></text>
  </g>
</svg>
