<?xml version="1.0" encoding="UTF-8" standalone="no"?>
<!-- Created with Inkscape (http://www.inkscape.org/) -->

<svg
   xmlns:dc="http://purl.org/dc/elements/1.1/"
   xmlns:cc="http://creativecommons.org/ns#"
   xmlns:rdf="http://www.w3.org/1999/02/22-rdf-syntax-ns#"
   xmlns:svg="http://www.w3.org/2000/svg"
   xmlns="http://www.w3.org/2000/svg"
   xmlns:sodipodi="http://sodipodi.sourceforge.net/DTD/sodipodi-0.dtd"
   xmlns:inkscape="http://www.inkscape.org/namespaces/inkscape"
   width="210mm"
   height="297mm"
   viewBox="0 0 210 297"
   version="1.1"
   id="svg8"
   inkscape:version="0.92.5 (2060ec1f9f, 2020-04-08)"
   sodipodi:docname="doc-cbz.svg">
  <defs
     id="defs2" />
  <sodipodi:namedview
     id="base"
     pagecolor="#ffffff"
     bordercolor="#666666"
     borderopacity="1.0"
     inkscape:pageopacity="0.0"
     inkscape:pageshadow="2"
     inkscape:zoom="0.7"
     inkscape:cx="176.9494"
     inkscape:cy="554.93534"
     inkscape:document-units="mm"
     inkscape:current-layer="layer1"
     showgrid="false"
     inkscape:window-width="2560"
     inkscape:window-height="1349"
     inkscape:window-x="2560"
     inkscape:window-y="0"
     inkscape:window-maximized="1" />
  <metadata
     id="metadata5">
    <rdf:RDF>
      <cc:Work
         rdf:about="">
        <dc:format>image/svg+xml</dc:format>
        <dc:type
           rdf:resource="http://purl.org/dc/dcmitype/StillImage" />
        <dc:title />
      </cc:Work>
    </rdf:RDF>
  </metadata>
  <g
     inkscape:label="Calque 1"
     inkscape:groupmode="layer"
     id="layer1">
    <rect
       style="fill:#4d4d4d;fill-opacity:1;stroke:none;stroke-width:0.58737499;stroke-miterlimit:4;stroke-dasharray:none;stroke-opacity:1"
       id="rect834"
       width="210"
       height="297"
       x="5.5511151e-16"
       y="5.6843419e-14"
       ry="0" />
    <g
       transform="matrix(0.30178126,0,0,0.30178126,31.606292,75.106348)"
       id="g36"
       style="fill:#ffffff">
      <g
         id="g34"
         style="fill:#ffffff">
        <g
           id="g32"
           style="fill:#ffffff">
          <path
             inkscape:connector-curvature="0"
             d="m 477.881,64.295 c 1.184,0.122 2.768,0.285 -0.006,-0.001 -0.079,-0.008 -0.211,-0.022 -0.366,-0.038 -0.646,-0.066 -0.659,-0.068 -0.38,-0.039 -9.109,-0.932 -88.807,-8.998 -117.077,-8.998 -28.041,0 -106.692,7.938 -116.85,8.975 -10.158,-1.037 -88.809,-8.975 -116.85,-8.975 -29.363,0 -114.225,8.704 -117.823,9.075 -4.845,0.499 -8.527,4.58 -8.527,9.45 v 310.65 c 0,2.689 1.139,5.252 3.136,7.053 1.996,1.801 4.661,2.675 7.337,2.397 0.871,-0.09 87.485,-8.975 115.877,-8.975 28.094,0 113.184,8.699 115.808,8.968 0.666,0.073 1.349,0.076 2.016,0.007 0.871,-0.09 87.485,-8.975 115.877,-8.975 28.391,0 115.006,8.885 115.877,8.975 0.326,0.033 0.649,0.05 0.973,0.05 2.34,0 4.611,-0.865 6.364,-2.447 1.996,-1.801 3.136,-4.364 3.136,-7.053 V 73.744 c -0.001,-4.867 -3.681,-8.947 -8.522,-9.449 z M 233.702,373.892 c -24.294,-2.399 -83.749,-8.023 -107.35,-8.023 -23.601,0 -83.057,5.624 -107.35,8.023 V 82.338 c 22.675,-2.244 84.262,-8.119 107.35,-8.119 23.088,0 84.675,5.875 107.35,8.119 z m 233.7,0 c -24.294,-2.399 -83.749,-8.023 -107.35,-8.023 -23.601,0 -83.056,5.623 -107.35,8.023 V 82.338 c 22.675,-2.244 84.262,-8.119 107.35,-8.119 23.088,0 84.675,5.875 107.35,8.119 z"
             id="path2"
             style="fill:#ffffff" />
          <path
             inkscape:connector-curvature="0"
             d="m 45.59,119.53 c 0.292,0 0.585,-0.013 0.879,-0.04 4.887,-0.449 10.042,-0.911 15.309,-1.369 5.227,-0.454 9.096,-5.06 8.642,-10.287 -0.456,-5.227 -5.071,-9.09 -10.288,-8.641 -5.298,0.46 -10.483,0.926 -15.399,1.377 -5.225,0.479 -9.072,5.103 -8.592,10.328 0.453,4.929 4.594,8.632 9.449,8.632 z"
             id="path4"
             style="fill:#ffffff" />
          <path
             inkscape:connector-curvature="0"
             d="m 95.303,96.413 c -5.234,0.358 -9.187,4.892 -8.828,10.127 0.358,5.234 4.894,9.192 10.127,8.828 13.324,-0.912 23.333,-1.375 29.75,-1.375 12.02,0 36.695,1.634 71.356,4.725 0.287,0.025 0.572,0.038 0.855,0.038 4.865,0 9.011,-3.718 9.451,-8.657 0.465,-5.226 -3.393,-9.84 -8.619,-10.306 -35.716,-3.185 -60.291,-4.8 -73.044,-4.8 -6.848,0 -17.294,0.478 -31.048,1.42 z"
             id="path6"
             style="fill:#ffffff" />
          <path
             inkscape:connector-curvature="0"
             d="m 286.055,99.878 c -5.225,0.468 -9.083,5.083 -8.615,10.309 0.468,5.226 5.076,9.088 10.309,8.615 35.169,-3.146 60.17,-4.809 72.303,-4.809 16.647,0 53.145,3.037 80.831,5.584 0.296,0.027 0.59,0.04 0.881,0.04 4.854,0 8.995,-3.702 9.449,-8.631 0.48,-5.224 -3.365,-9.849 -8.59,-10.33 -28.082,-2.583 -65.204,-5.663 -82.571,-5.663 -12.869,0 -37.765,1.643 -73.997,4.885 z"
             id="path8-0"
             style="fill:#ffffff" />
          <path
             inkscape:connector-curvature="0"
             d="m 199.395,143.933 c -35.716,-3.185 -60.291,-4.8 -73.044,-4.8 -17.218,0 -53.888,3.032 -81.617,5.576 -5.225,0.479 -9.073,5.103 -8.593,10.328 0.452,4.93 4.594,8.633 9.449,8.633 0.291,0 0.584,-0.013 0.878,-0.041 27.335,-2.507 63.383,-5.496 79.883,-5.496 12.02,0 36.695,1.634 71.356,4.725 5.232,0.46 9.84,-3.393 10.307,-8.619 0.465,-5.226 -3.393,-9.84 -8.619,-10.306 z"
             id="path10"
             style="fill:#ffffff" />
          <path
             inkscape:connector-curvature="0"
             d="m 442.623,144.796 c -28.082,-2.583 -65.204,-5.663 -82.571,-5.663 -12.876,0 -37.772,1.643 -73.997,4.885 -5.226,0.468 -9.083,5.084 -8.615,10.309 0.468,5.227 5.092,9.085 10.309,8.616 35.161,-3.147 60.164,-4.81 72.303,-4.81 16.647,0 53.145,3.037 80.831,5.584 0.296,0.027 0.589,0.04 0.881,0.04 4.853,0 8.995,-3.701 9.449,-8.631 0.48,-5.224 -3.365,-9.849 -8.59,-10.33 z"
             id="path12"
             style="fill:#ffffff" />
          <path
             inkscape:connector-curvature="0"
             d="m 199.395,187.997 c -35.716,-3.185 -60.291,-4.8 -73.044,-4.8 -17.218,0 -53.888,3.032 -81.617,5.576 -5.225,0.479 -9.073,5.103 -8.593,10.328 0.452,4.93 4.594,8.633 9.449,8.633 0.291,0 0.584,-0.013 0.878,-0.041 27.335,-2.507 63.383,-5.496 79.883,-5.496 12.02,0 36.695,1.634 71.356,4.725 5.232,0.466 9.84,-3.393 10.307,-8.619 0.465,-5.226 -3.393,-9.84 -8.619,-10.306 z"
             id="path14"
             style="fill:#ffffff" />
          <path
             inkscape:connector-curvature="0"
             d="m 199.395,232.007 c -35.719,-3.186 -60.295,-4.801 -73.044,-4.801 -17.223,0 -53.891,3.033 -81.618,5.577 -5.224,0.479 -9.072,5.103 -8.592,10.328 0.452,4.93 4.594,8.633 9.449,8.633 0.291,0 0.585,-0.013 0.879,-0.04 27.332,-2.508 63.378,-5.497 79.882,-5.497 12.016,0 36.691,1.634 71.356,4.725 5.232,0.459 9.84,-3.393 10.307,-8.619 0.465,-5.226 -3.393,-9.84 -8.619,-10.306 z"
             id="path16"
             style="fill:#ffffff" />
          <path
             inkscape:connector-curvature="0"
             d="m 199.395,276.07 c -35.716,-3.185 -60.291,-4.8 -73.044,-4.8 -17.218,0 -53.888,3.032 -81.617,5.576 -5.225,0.479 -9.073,5.103 -8.593,10.328 0.452,4.93 4.594,8.633 9.449,8.633 0.291,0 0.584,-0.013 0.878,-0.041 27.335,-2.507 63.383,-5.496 79.883,-5.496 12.02,0 36.695,1.634 71.356,4.725 5.232,0.466 9.84,-3.393 10.307,-8.619 0.465,-5.226 -3.393,-9.84 -8.619,-10.306 z"
             id="path18"
             style="fill:#ffffff" />
          <path
             inkscape:connector-curvature="0"
             d="m 442.623,188.86 c -28.082,-2.583 -65.204,-5.663 -82.571,-5.663 -12.869,0 -37.765,1.643 -73.997,4.885 -5.225,0.468 -9.083,5.083 -8.615,10.309 0.468,5.227 5.076,9.082 10.309,8.616 35.169,-3.147 60.17,-4.81 72.303,-4.81 16.647,0 53.145,3.037 80.831,5.584 0.296,0.027 0.589,0.04 0.881,0.04 4.853,0 8.995,-3.702 9.449,-8.631 0.48,-5.224 -3.365,-9.849 -8.59,-10.33 z"
             id="path20"
             style="fill:#ffffff" />
          <path
             inkscape:connector-curvature="0"
             d="m 354.827,278.868 c 0,-2.715 -1.162,-5.301 -3.193,-7.104 l -32.882,-29.192 c -3.482,-3.093 -8.694,-3.203 -12.305,-0.262 -11.818,9.624 -18.595,23.409 -18.595,37.822 0,13.791 5.975,26.692 16.827,36.325 1.799,1.598 4.053,2.396 6.307,2.396 2.253,0 4.507,-0.799 6.307,-2.394 l 34.341,-30.486 c 2.031,-1.803 3.193,-4.39 3.193,-7.105 z m -43.062,17.089 c -3.204,-4.775 -4.913,-10.201 -4.913,-15.826 0,-6.282 2.096,-12.257 6.015,-17.377 l 18.15,16.112 z"
             id="path22"
             style="fill:#ffffff" />
          <path
             inkscape:connector-curvature="0"
             d="m 426.833,243.814 c -0.003,-0.003 -0.005,-0.006 -0.008,-0.008 -10.533,-9.35 -24.462,-14.499 -39.223,-14.499 -13.858,0 -27.16,4.618 -37.456,13.003 -2.16,1.759 -3.439,4.379 -3.498,7.164 -0.059,2.786 1.108,5.456 3.191,7.306 l 24.879,22.087 -26.338,23.382 c -2.031,1.803 -3.193,4.389 -3.193,7.105 0,2.716 1.162,5.302 3.193,7.105 10.533,9.35 24.462,14.499 39.223,14.499 30.906,0 56.05,-22.8 56.05,-50.825 -0.001,-13.789 -5.974,-26.686 -16.82,-36.319 z m -39.231,68.143 c -6.165,0 -12.086,-1.283 -17.366,-3.704 l 25.097,-22.28 10e-4,-0.001 24.405,-21.666 c 3.204,4.775 4.913,10.202 4.913,15.826 0,17.548 -16.621,31.825 -37.05,31.825 z"
             id="path24"
             style="fill:#ffffff" />
          <path
             inkscape:connector-curvature="0"
             d="m 477.875,412.232 c -3.598,-0.371 -88.46,-9.075 -117.823,-9.075 -5.246,0 -9.5,4.253 -9.5,9.5 0,5.247 4.254,9.5 9.5,9.5 28.392,0 115.006,8.885 115.877,8.975 0.331,0.034 0.658,0.051 0.984,0.051 4.809,0 8.936,-3.64 9.439,-8.528 0.537,-5.219 -3.258,-9.886 -8.477,-10.423 z"
             id="path26"
             style="fill:#ffffff" />
          <path
             inkscape:connector-curvature="0"
             d="m 318.483,405.339 c -9.582,0.726 -20.493,1.636 -32.428,2.703 -5.226,0.468 -9.084,5.083 -8.616,10.309 0.442,4.938 4.587,8.654 9.451,8.654 0.284,0 0.57,-0.013 0.857,-0.037 11.851,-1.06 22.675,-1.963 32.172,-2.683 5.231,-0.397 9.151,-4.96 8.755,-10.191 -0.397,-5.232 -4.979,-9.158 -10.191,-8.755 z"
             id="path28"
             style="fill:#ffffff" />
          <path
             inkscape:connector-curvature="0"
             d="m 244.174,412.232 c -3.598,-0.371 -88.46,-9.075 -117.823,-9.075 -29.363,0 -114.225,8.704 -117.823,9.075 -5.22,0.537 -9.014,5.204 -8.477,10.423 0.504,4.889 4.63,8.528 9.439,8.528 0.325,0 0.654,-0.017 0.984,-0.051 0.871,-0.09 87.481,-8.975 115.877,-8.975 28.392,0 115.006,8.885 115.877,8.975 5.23,0.545 9.887,-3.258 10.423,-8.477 0.537,-5.219 -3.258,-9.886 -8.477,-10.423 z"
             id="path30"
             style="fill:#ffffff" />
        </g>
      </g>
    </g>
  </g>
</svg>
